<svg width="1753" height="1960" viewBox="0 0 1753 1960" fill="none" xmlns="http://www.w3.org/2000/svg">
<path d="M1145.98 16.1406C1165.63 -2.62203 1196.84 -1.17505 1259.24 1.71951L1382.51 7.43751C1432.69 9.76547 1457.79 10.9283 1477.33 20.3909C1500.29 31.5072 1518.46 50.5413 1528.5 73.9863C1536.03 91.5609 1536.93 113.137 1537.03 152.343C1442.87 95.719 1310.85 69.879 1128.08 61.9012C1130.25 40.7156 1135.1 26.5198 1145.98 16.1406Z" fill="#B4BEFE"/>
<path d="M0 1051.87C0 419.074 135.645 283.448 768.525 283.448C1401.41 283.448 1537.05 419.074 1537.05 1051.87V1191.58C1537.05 1824.37 1401.41 1960 768.525 1960C135.645 1960 0 1824.37 0 1191.58V1051.87Z" fill="#444D88"/>
<path d="M215.949 827.481C215.949 194.687 351.594 59.0612 984.475 59.0612C1617.36 59.0612 1753 194.687 1753 827.481V967.194C1753 1599.99 1617.36 1735.61 984.475 1735.61C351.594 1735.61 215.949 1599.99 215.949 967.194V827.481Z" fill="#7287FD"/>
<path d="M1194.07 65.7384C1343.17 76.7949 1454.6 102.776 1537.03 152.343C1537.03 150.72 1537.01 149.128 1537 147.564C1537.03 148.399 1537.05 149.24 1537.05 150.086V387.555C1537.05 452.935 1537.05 485.628 1516.33 497.933C1515.67 498.328 1514.99 498.704 1514.31 499.062C1492.95 510.214 1465.13 493.027 1409.51 458.656C1388.41 445.621 1377.87 439.101 1366.17 438.934C1365.76 438.928 1365.36 438.928 1364.96 438.934C1353.26 439.101 1342.71 445.621 1321.61 458.656C1265.99 493.027 1238.18 510.214 1216.82 499.062C1216.13 498.704 1215.45 498.328 1214.79 497.933C1194.07 485.628 1194.07 452.935 1194.07 387.555V65.7384Z" fill="#B4BEFE"/>
<path d="M845.791 932.319C867.306 953.921 902.186 954.581 923.701 932.979C934.366 922.271 939.742 907.605 939.834 893.571C939.909 907.825 934.534 922.103 923.701 932.979L741.902 1115.51C720.387 1137.12 685.503 1137.12 663.987 1115.51C642.472 1093.91 642.473 1058.89 663.987 1037.29L807.16 893.533L845.791 932.319Z" fill="#B4BEFE"/>
<path d="M663.984 672.216C685.5 650.614 720.384 650.614 741.899 672.216L923.701 854.751C945.217 876.353 945.217 911.377 923.701 932.979C902.186 954.581 867.306 953.921 845.791 932.319L663.984 750.445C642.469 728.843 642.469 693.818 663.984 672.216Z" fill="white"/>
<path d="M949.574 1087.58C949.574 1057.03 974.24 1032.26 1004.67 1032.26H1261.77C1292.2 1032.26 1316.87 1057.03 1316.87 1087.58C1316.87 1118.13 1292.2 1142.89 1261.77 1142.89H1004.67C974.24 1142.89 949.574 1118.13 949.574 1087.58Z" fill="white"/>
<path d="M1197.5 153.333L1194.06 152.198C1194.06 149.472 1194.07 146.651 1194.07 143.731C1194.07 83.4683 1182.32 66.6048 1128.08 61.9012L1128.18 61L1197.5 60.1911V153.333Z" fill="#B4BEFE"/>
<path d="M1321.1 269.013C1261.22 269.013 1231.28 269.013 1212.68 250.412C1194.07 231.812 1194.07 201.875 1194.07 142.001V132.407C1194.07 70.126 1194.07 38.9857 1213.66 20.2331C1233.24 1.48049 1264.35 2.82483 1326.59 5.51351L1380.76 7.85414C1432.26 10.0793 1458.02 11.1919 1477.99 21.0381C1500.32 32.0387 1518.05 50.5502 1528.07 73.322C1537.05 93.7042 1537.05 119.477 1537.05 171.021C1537.05 203.179 1537.05 219.259 1531.36 231.778C1525.01 245.762 1513.8 256.97 1499.81 263.324C1487.29 269.013 1471.21 269.013 1439.05 269.013H1321.1Z" fill="#B4BEFE"/>
</svg>
