<svg width="906" height="148" viewBox="0 0 906 148" fill="none" xmlns="http://www.w3.org/2000/svg">
    <path d="M86.2915 1.21878C87.7716 -0.19799 90.1213 -0.0887286 94.8202 0.12984L104.102 0.561608C107.881 0.737393 109.771 0.825196 111.242 1.53972C112.971 2.37911 114.339 3.81638 115.096 5.58672C115.662 6.91378 115.73 8.54302 115.738 11.5035C108.647 7.22776 98.7064 5.27658 84.9439 4.67417C85.1074 3.07444 85.4728 2.00251 86.2915 1.21878Z" fill="#B4BEFE"/>
    <path d="M0 79.4267C0 31.6443 10.214 21.4032 57.8696 21.4032C105.525 21.4032 115.739 31.6443 115.739 79.4267V89.9765C115.739 137.759 105.525 148 57.8696 148C10.214 148 0 137.759 0 89.9765V79.4267Z" fill="#444D88"/>
    <path d="M16.2609 62.4833C16.2609 14.7009 26.4748 4.45972 74.1304 4.45972C121.786 4.45972 132 14.7009 132 62.4833V73.033C132 120.815 121.786 131.057 74.1304 131.057C26.4748 131.057 16.2609 120.815 16.2609 73.033V62.4833Z" fill="#7287FD"/>
    <path d="M89.913 4.96392C101.14 5.7988 109.531 7.7606 115.738 11.5035C115.738 11.3809 115.736 11.2607 115.735 11.1426C115.738 11.2056 115.739 11.2691 115.739 11.333V29.2643C115.739 34.2012 115.739 36.6699 114.179 37.599C114.129 37.6288 114.078 37.6573 114.027 37.6843C112.418 38.5264 110.324 37.2286 106.135 34.6332C104.547 33.6489 103.753 33.1566 102.872 33.144C102.841 33.1436 102.811 33.1436 102.781 33.144C101.9 33.1566 101.105 33.6489 99.5169 34.6332C95.3284 37.2286 93.234 38.5264 91.6256 37.6843C91.574 37.6573 91.523 37.6288 91.473 37.599C89.913 36.6699 89.913 34.2012 89.913 29.2643V4.96392Z" fill="#B4BEFE"/>
    <path d="M63.6876 70.3996C65.3077 72.0307 67.9342 72.0806 69.5542 70.4494C70.3573 69.6409 70.7621 68.5334 70.769 67.4737C70.7747 68.5501 70.3699 69.6282 69.5542 70.4494L55.8648 84.2327C54.2447 85.8638 51.618 85.8638 49.9979 84.2327C48.3778 82.6015 48.3779 79.9568 49.9979 78.3257L60.7787 67.4709L63.6876 70.3996Z" fill="#B4BEFE"/>
    <path d="M49.9977 50.7592C51.6178 49.128 54.2445 49.128 55.8646 50.7592L69.5542 64.5424C71.1744 66.1736 71.1744 68.8182 69.5542 70.4494C67.9342 72.0806 65.3077 72.0307 63.6876 70.3996L49.9977 56.6662C48.3776 55.035 48.3776 52.3904 49.9977 50.7592Z" fill="white"/>
    <path d="M71.5024 82.1231C71.5024 79.8163 73.3598 77.9462 75.651 77.9462H95.0109C97.3021 77.9462 99.1594 79.8163 99.1594 82.1231C99.1594 84.43 97.3021 86.3 95.0109 86.3H75.651C73.3598 86.3 71.5024 84.43 71.5024 82.1231Z" fill="white"/>
    <path d="M90.1711 11.5782L89.9118 11.4925C89.9123 11.2867 89.913 11.0736 89.913 10.8532C89.913 6.30271 89.0281 5.02934 84.9439 4.67417L84.951 4.60612L90.1711 4.54504V11.5782Z" fill="#B4BEFE"/>
    <path d="M99.4783 20.3132C94.9692 20.3132 92.7146 20.3132 91.3138 18.9087C89.9131 17.5042 89.913 15.2436 89.913 10.7225V9.99804C89.913 5.29522 89.9131 2.94382 91.3876 1.5278C92.8622 0.111792 95.2052 0.213303 99.8912 0.416326L103.971 0.593068C107.849 0.761093 109.788 0.845106 111.292 1.58859C112.973 2.41925 114.308 3.81705 115.063 5.53656C115.739 7.07562 115.739 9.0217 115.739 12.9138C115.739 15.3421 115.739 16.5563 115.311 17.5016C114.832 18.5576 113.988 19.4038 112.935 19.8836C111.992 20.3132 110.781 20.3132 108.359 20.3132H99.4783Z" fill="#B4BEFE"/>
    <path d="M239.152 120.664C233.093 120.664 227.397 119.469 222.064 117.08C216.731 114.648 212.037 111.32 207.984 107.096C203.973 102.829 200.816 97.88 198.512 92.248C196.251 86.616 195.12 80.6 195.12 74.2C195.12 67.8 196.251 61.784 198.512 56.152C200.816 50.52 203.973 45.592 207.984 41.368C212.037 37.1013 216.731 33.7733 222.064 31.384C227.397 28.952 233.093 27.736 239.152 27.736C246.405 27.736 253.083 29.4213 259.184 32.792C265.285 36.1627 270.341 40.6427 274.352 46.232L262.512 52.568C259.739 49.0693 256.304 46.2747 252.208 44.184C248.112 42.0933 243.76 41.048 239.152 41.048C234.885 41.048 230.896 41.9227 227.184 43.672C223.472 45.4213 220.208 47.8107 217.392 50.84C214.576 53.8693 212.379 57.3893 210.8 61.4C209.221 65.4107 208.432 69.6773 208.432 74.2C208.432 78.7653 209.221 83.0533 210.8 87.064C212.379 91.032 214.576 94.552 217.392 97.624C220.251 100.653 223.536 103.043 227.248 104.792C230.96 106.499 234.928 107.352 239.152 107.352C243.845 107.352 248.219 106.307 252.272 104.216C256.368 102.083 259.781 99.2667 262.512 95.768L274.352 102.232C270.341 107.821 265.285 112.301 259.184 115.672C253.083 119 246.405 120.664 239.152 120.664ZM330.59 120.664C324.531 120.664 318.835 119.469 313.502 117.08C308.169 114.648 303.475 111.299 299.422 107.032C295.369 102.765 292.19 97.8373 289.886 92.248C287.582 86.616 286.43 80.6 286.43 74.2C286.43 67.8 287.582 61.8053 289.886 56.216C292.19 50.584 295.369 45.6347 299.422 41.368C303.475 37.1013 308.169 33.7733 313.502 31.384C318.835 28.952 324.531 27.736 330.59 27.736C336.691 27.736 342.409 28.952 347.742 31.384C353.075 33.7733 357.769 37.1013 361.822 41.368C365.875 45.6347 369.033 50.584 371.294 56.216C373.598 61.8053 374.75 67.8 374.75 74.2C374.75 80.6 373.598 86.616 371.294 92.248C369.033 97.8373 365.875 102.765 361.822 107.032C357.769 111.299 353.075 114.648 347.742 117.08C342.409 119.469 336.691 120.664 330.59 120.664ZM330.59 107.352C334.857 107.352 338.846 106.477 342.558 104.728C346.27 102.979 349.534 100.589 352.35 97.56C355.209 94.488 357.427 90.968 359.006 87C360.627 82.9893 361.438 78.7227 361.438 74.2C361.438 69.6773 360.627 65.4107 359.006 61.4C357.427 57.3893 355.209 53.8693 352.35 50.84C349.534 47.768 346.27 45.3787 342.558 43.672C338.846 41.9227 334.857 41.048 330.59 41.048C326.323 41.048 322.334 41.9227 318.622 43.672C314.91 45.4213 311.625 47.832 308.766 50.904C305.95 53.9333 303.731 57.4533 302.11 61.464C300.531 65.432 299.742 69.6773 299.742 74.2C299.742 78.7653 300.531 83.0533 302.11 87.064C303.731 91.032 305.95 94.552 308.766 97.624C311.625 100.653 314.91 103.043 318.622 104.792C322.334 106.499 326.323 107.352 330.59 107.352ZM389.425 119V29.4H419.057C425.244 29.4 431.046 30.5733 436.465 32.92C441.884 35.224 446.641 38.4453 450.737 42.584C454.833 46.68 458.033 51.4373 460.337 56.856C462.684 62.232 463.857 68.0133 463.857 74.2C463.857 80.3867 462.684 86.1893 460.337 91.608C458.033 96.984 454.833 101.741 450.737 105.88C446.641 109.976 441.884 113.197 436.465 115.544C431.046 117.848 425.244 119 419.057 119H389.425ZM402.737 105.688H419.057C423.409 105.688 427.462 104.877 431.217 103.256C435.014 101.635 438.364 99.3733 441.265 96.472C444.209 93.5707 446.492 90.2213 448.113 86.424C449.734 82.6267 450.545 78.552 450.545 74.2C450.545 69.848 449.734 65.7733 448.113 61.976C446.492 58.1787 444.209 54.8293 441.265 51.928C438.364 49.0267 435.014 46.7653 431.217 45.144C427.462 43.5227 423.409 42.712 419.057 42.712H402.737V105.688ZM477.36 119V29.4H532.976V42.712H490.672V64.344H524.72V77.656H490.672V105.688H532.976V119H477.36ZM550.17 119V29.4H581.018C585.839 29.4 590.191 30.5947 594.074 32.984C597.999 35.3733 601.114 38.5947 603.418 42.648C605.765 46.7013 606.938 51.1813 606.938 56.088C606.938 61.08 605.743 65.6027 603.354 69.656C601.007 73.6667 597.871 76.8667 593.946 79.256C590.021 81.6453 585.711 82.84 581.018 82.84H563.482V119H550.17ZM563.482 69.528H579.674C582.234 69.528 584.559 68.888 586.65 67.608C588.783 66.328 590.469 64.6213 591.706 62.488C592.986 60.3547 593.626 57.944 593.626 55.256C593.626 52.568 592.986 50.1573 591.706 48.024C590.469 45.848 588.783 44.1413 586.65 42.904C584.559 41.624 582.234 40.984 579.674 40.984H563.482V69.528ZM621.73 119V29.4H677.346V42.712H635.042V64.344H669.09V77.656H635.042V105.688H677.346V119H621.73ZM694.54 119V29.4H724.172C730.359 29.4 736.161 30.5733 741.58 32.92C746.999 35.224 751.756 38.4453 755.852 42.584C759.948 46.68 763.148 51.4373 765.452 56.856C767.799 62.232 768.972 68.0133 768.972 74.2C768.972 80.3867 767.799 86.1893 765.452 91.608C763.148 96.984 759.948 101.741 755.852 105.88C751.756 109.976 746.999 113.197 741.58 115.544C736.161 117.848 730.359 119 724.172 119H694.54ZM707.852 105.688H724.172C728.524 105.688 732.577 104.877 736.332 103.256C740.129 101.635 743.479 99.3733 746.38 96.472C749.324 93.5707 751.607 90.2213 753.228 86.424C754.849 82.6267 755.66 78.552 755.66 74.2C755.66 69.848 754.849 65.7733 753.228 61.976C751.607 58.1787 749.324 54.8293 746.38 51.928C743.479 49.0267 740.129 46.7653 736.332 45.144C732.577 43.5227 728.524 42.712 724.172 42.712H707.852V105.688ZM784.395 119V29.4H797.707V119H784.395ZM847.551 29.4H863.103L895.679 119H881.599L875.391 101.976H835.263L829.119 119H814.975L847.551 29.4ZM840.191 88.664H870.463L855.295 47.064L840.191 88.664Z" fill="#EAEDFBFF"/>
</svg>
